<?xml version="1.0" encoding="utf-8"?>
<!-- Generator: Adobe Illustrator 16.0.0, SVG Export Plug-In . SVG Version: 6.00 Build 0)  -->
<!DOCTYPE svg PUBLIC "-//W3C//DTD SVG 1.1//EN" "http://www.w3.org/Graphics/SVG/1.1/DTD/svg11.dtd">
<svg version="1.1" id="Layer_1" xmlns="http://www.w3.org/2000/svg" xmlns:xlink="http://www.w3.org/1999/xlink" x="0px" y="0px"
	 width="198.261px" height="34.912px" viewBox="0 0 198.261 34.912" enable-background="new 0 0 198.261 34.912"
	 xml:space="preserve">
<g id="yBtmYG_1_">
	<image overflow="visible" width="198" height="35" id="yBtmYG_2_" xlink:href="57B7C581EC2005ED.jpg" >
	</image>
</g>
<g>
	<g>
		<path fill="#E14F3E" d="M27.227,23.089c-1.505,2.437-5.984,4.281-11.479,4.625c-0.283,0.019-0.569,0.032-0.857,0.041
			c-0.051,0.002-0.103,0.004-0.154,0.005c-0.28,0.008-0.563,0.013-0.849,0.013c0,0-0.001,0-0.001,0c-0.001,0-0.001,0-0.001,0
			c-0.285,0-0.568-0.006-0.85-0.013c-0.052-0.001-0.103-0.003-0.154-0.005c-0.288-0.009-0.573-0.022-0.856-0.041
			c-5.496-0.344-9.975-2.188-11.48-4.625c-0.355-0.573-0.544-0.267-0.544,0.019c0,0.283,0,3.972,0,3.972
			c0,2.416,2.456,4.888,6.182,6.391v0.001c0.013,0.006,0.027,0.011,0.042,0.017c0.234,0.093,0.474,0.183,0.718,0.269
			c0.052,0.019,0.104,0.037,0.156,0.054c0.265,0.092,0.533,0.178,0.808,0.26c0.013,0.003,0.026,0.007,0.039,0.011
			c0.259,0.075,0.525,0.146,0.792,0.212c0.061,0.015,0.122,0.029,0.183,0.044c0.284,0.067,0.57,0.131,0.863,0.187
			c0.013,0.003,0.026,0.006,0.039,0.008c0.276,0.054,0.557,0.099,0.841,0.142c0.071,0.011,0.143,0.021,0.215,0.031
			c0.298,0.04,0.598,0.078,0.904,0.107c0.012,0.002,0.024,0.002,0.036,0.004c0.292,0.026,0.588,0.047,0.886,0.063
			c0.079,0.005,0.159,0.008,0.239,0.011c0.309,0.015,0.623,0.023,0.938,0.023c0,0,0.001,0,0.001,0c0,0,0,0,0,0s0,0,0,0
			c0,0,0.001,0,0.001,0c0.315,0,0.629-0.009,0.941-0.023c0.08-0.003,0.159-0.007,0.238-0.011c0.298-0.016,0.593-0.036,0.885-0.063
			c0.013-0.001,0.024-0.002,0.037-0.003c0.305-0.03,0.606-0.067,0.904-0.108c0.072-0.01,0.144-0.021,0.216-0.031
			c0.283-0.043,0.564-0.088,0.841-0.141c0.012-0.003,0.026-0.005,0.039-0.008c0.292-0.057,0.579-0.12,0.863-0.188
			c0.061-0.015,0.122-0.029,0.183-0.044c0.269-0.066,0.534-0.137,0.794-0.213c0.013-0.004,0.025-0.007,0.039-0.01
			c0.275-0.081,0.543-0.168,0.809-0.259c0.052-0.018,0.104-0.036,0.154-0.055c0.245-0.086,0.486-0.176,0.721-0.27
			c0.013-0.005,0.027-0.01,0.04-0.015v-0.001c3.727-1.504,6.182-3.976,6.182-6.392c0,0,0-3.688,0-3.972
			C27.77,22.823,27.581,22.517,27.227,23.089z"/>
		<path fill="#F5B726" d="M27.752,4.953C27.38,2.194,21.315,0,13.886,0c0,0,0,0,0,0s0,0,0,0C6.215,0,0,2.338,0,5.222V7.72
			c0,3.059,6.215,5.539,13.885,5.539c0,0,0,0,0,0s0,0,0,0c7.43,0,13.495-2.327,13.867-5.253c0.012-0.095,0.018-0.189,0.018-0.285
			V5.222C27.77,5.132,27.764,5.042,27.752,4.953z"/>
		<path fill="#EE8639" d="M27.25,12.942c-1.3,1.89-4.917,3.378-9.51,3.923c-0.596,0.071-1.208,0.124-1.834,0.162
			c-0.028,0.002-0.057,0.004-0.086,0.006c-0.295,0.017-0.594,0.03-0.896,0.039c-0.038,0.001-0.076,0.002-0.115,0.004
			c-0.306,0.008-0.613,0.013-0.924,0.013c-0.011,0-0.023-0.001-0.034-0.001c-0.29,0-0.578-0.004-0.863-0.012
			c-0.054-0.001-0.108-0.003-0.162-0.004c-0.291-0.009-0.579-0.022-0.864-0.039c-0.04-0.002-0.078-0.005-0.117-0.008
			c-0.608-0.036-1.204-0.089-1.784-0.157c-4.608-0.54-8.24-2.032-9.542-3.926C0.182,12.45,0,12.717,0,12.941
			c0,0.223,0,4.673,0,4.673c0,3.477,6.149,6.298,13.761,6.328l0.248-0.001v0.001c0.027,0,0.054-0.001,0.082-0.001l0.151-0.001
			l0.002-0.003c7.502-0.086,13.526-2.883,13.526-6.324c0,0,0-4.449,0-4.672C27.77,12.717,27.589,12.45,27.25,12.942z"/>
	</g>
	<g>
		<path fill="#FFFFFF" d="M46.792,28.796c-2.789,0-4.948-0.858-6.478-2.575s-2.294-4.146-2.294-7.286
			c0-3.223,0.776-5.713,2.329-7.471s3.765-2.637,6.636-2.637c0.926,0,1.852,0.1,2.777,0.299s1.652,0.434,2.18,0.703l-0.896,2.479
			c-0.645-0.258-1.348-0.472-2.109-0.642s-1.436-0.255-2.021-0.255c-3.914,0-5.871,2.496-5.871,7.488
			c0,2.367,0.478,4.184,1.433,5.449s2.37,1.898,4.245,1.898c1.605,0,3.252-0.346,4.939-1.037v2.584
			C50.372,28.462,48.749,28.796,46.792,28.796z"/>
		<path fill="#FFFFFF" d="M72.104,18.794c0,3.141-0.791,5.593-2.373,7.356s-3.768,2.646-6.557,2.646
			c-1.723,0-3.252-0.404-4.588-1.213s-2.367-1.969-3.094-3.48s-1.09-3.281-1.09-5.309c0-3.141,0.785-5.587,2.355-7.339
			s3.75-2.628,6.539-2.628c2.695,0,4.837,0.896,6.425,2.689S72.104,15.735,72.104,18.794z M57.426,18.794
			c0,2.461,0.492,4.336,1.477,5.625s2.432,1.934,4.342,1.934s3.36-0.642,4.351-1.925s1.485-3.161,1.485-5.634
			c0-2.449-0.495-4.31-1.485-5.581s-2.452-1.907-4.386-1.907c-1.91,0-3.352,0.627-4.324,1.881S57.426,16.31,57.426,18.794z"/>
		<path fill="#FFFFFF" d="M79.381,28.444h-2.918V1.093h2.918V28.444z"/>
		<path fill="#FFFFFF" d="M101.441,18.794c0,3.141-0.791,5.593-2.373,7.356s-3.768,2.646-6.557,2.646
			c-1.723,0-3.252-0.404-4.588-1.213s-2.367-1.969-3.094-3.48s-1.09-3.281-1.09-5.309c0-3.141,0.785-5.587,2.355-7.339
			s3.75-2.628,6.539-2.628c2.695,0,4.837,0.896,6.425,2.689S101.441,15.735,101.441,18.794z M86.764,18.794
			c0,2.461,0.492,4.336,1.477,5.625s2.432,1.934,4.342,1.934s3.36-0.642,4.351-1.925s1.485-3.161,1.485-5.634
			c0-2.449-0.495-4.31-1.485-5.581s-2.452-1.907-4.386-1.907c-1.91,0-3.352,0.627-4.324,1.881S86.764,16.31,86.764,18.794z"/>
		<path fill="#FFFFFF" d="M114.59,8.827c0.855,0,1.623,0.07,2.303,0.211l-0.404,2.707c-0.797-0.176-1.5-0.264-2.109-0.264
			c-1.559,0-2.892,0.633-3.999,1.898s-1.661,2.842-1.661,4.729v10.336h-2.918V9.179h2.408l0.334,3.568h0.141
			c0.715-1.254,1.576-2.221,2.584-2.9S113.383,8.827,114.59,8.827z"/>
		<path fill="#FFFFFF" d="M132.168,23.188c0,1.793-0.668,3.176-2.004,4.148s-3.211,1.459-5.625,1.459
			c-2.555,0-4.547-0.404-5.977-1.213v-2.707c0.926,0.469,1.919,0.838,2.979,1.107s2.083,0.404,3.067,0.404
			c1.523,0,2.695-0.243,3.516-0.729s1.23-1.228,1.23-2.224c0-0.75-0.325-1.392-0.976-1.925s-1.919-1.163-3.806-1.89
			c-1.793-0.668-3.067-1.251-3.823-1.749s-1.318-1.063-1.688-1.696s-0.554-1.389-0.554-2.268c0-1.57,0.639-2.81,1.916-3.718
			s3.029-1.362,5.256-1.362c2.074,0,4.102,0.422,6.082,1.266l-1.037,2.373c-1.934-0.797-3.686-1.195-5.256-1.195
			c-1.383,0-2.426,0.217-3.129,0.65s-1.055,1.031-1.055,1.793c0,0.516,0.132,0.955,0.396,1.318s0.688,0.709,1.274,1.037
			s1.711,0.803,3.375,1.424c2.285,0.832,3.829,1.67,4.632,2.514S132.168,21.911,132.168,23.188z"/>
		<path fill="#FFFFFF" d="M142.381,26.388c0.516,0,1.014-0.038,1.494-0.114s0.861-0.155,1.143-0.237v2.232
			c-0.316,0.152-0.782,0.278-1.397,0.378s-1.169,0.149-1.661,0.149c-3.727,0-5.59-1.963-5.59-5.889V11.446h-2.76V10.04l2.76-1.213
			l1.23-4.113h1.688v4.465h5.59v2.268h-5.59v11.338c0,1.16,0.275,2.051,0.826,2.672S141.42,26.388,142.381,26.388z"/>
		<path fill="#FFFFFF" d="M164.739,18.794c0,3.141-0.791,5.593-2.373,7.356s-3.768,2.646-6.557,2.646
			c-1.723,0-3.252-0.404-4.588-1.213s-2.367-1.969-3.094-3.48s-1.09-3.281-1.09-5.309c0-3.141,0.785-5.587,2.355-7.339
			s3.75-2.628,6.539-2.628c2.695,0,4.837,0.896,6.425,2.689S164.739,15.735,164.739,18.794z M150.062,18.794
			c0,2.461,0.492,4.336,1.477,5.625s2.432,1.934,4.342,1.934s3.36-0.642,4.351-1.925s1.485-3.161,1.485-5.634
			c0-2.449-0.495-4.31-1.485-5.581s-2.452-1.907-4.386-1.907c-1.91,0-3.352,0.627-4.324,1.881S150.062,16.31,150.062,18.794z"/>
		<path fill="#FFFFFF" d="M177.888,8.827c0.855,0,1.623,0.07,2.303,0.211l-0.404,2.707c-0.797-0.176-1.5-0.264-2.109-0.264
			c-1.559,0-2.892,0.633-3.999,1.898s-1.661,2.842-1.661,4.729v10.336h-2.918V9.179h2.408l0.334,3.568h0.141
			c0.715-1.254,1.576-2.221,2.584-2.9S176.681,8.827,177.888,8.827z"/>
		<path fill="#FFFFFF" d="M191.177,28.796c-2.848,0-5.095-0.867-6.741-2.602s-2.47-4.143-2.47-7.225c0-3.105,0.765-5.572,2.294-7.4
			s3.583-2.742,6.161-2.742c2.414,0,4.324,0.794,5.73,2.382s2.109,3.683,2.109,6.284v1.846h-13.271
			c0.059,2.262,0.63,3.979,1.714,5.15s2.61,1.758,4.579,1.758c2.074,0,4.125-0.434,6.152-1.301v2.602
			c-1.031,0.445-2.007,0.765-2.927,0.958S192.478,28.796,191.177,28.796z M190.386,11.271c-1.547,0-2.78,0.504-3.7,1.512
			s-1.462,2.402-1.626,4.184h10.072c0-1.84-0.41-3.249-1.23-4.228S191.909,11.271,190.386,11.271z"/>
	</g>
</g>
</svg>
